<?xml version="1.0" encoding="utf-8"?>
<!-- Generator: Adobe Illustrator 27.0.0, SVG Export Plug-In . SVG Version: 6.00 Build 0)  -->
<svg version="1.1" id="Capa_1" xmlns="http://www.w3.org/2000/svg" xmlns:xlink="http://www.w3.org/1999/xlink" x="0px" y="0px"
	 viewBox="0 0 957.8 957.8" style="enable-background:new 0 0 957.8 957.8;" xml:space="preserve">
<g>
	<g>
		<path d="M166.2,414.8c8-108.2,15.6-202.6,102-213.2c10.5-17.6,23.2-33.8,37.8-48.4c14.9-14.9,31.4-27.6,49.4-38.1
			c-18.5-20.9-44.9-42.6-79.1-51C202,45.7,73.7,58.7,11.6,309.1C-50.4,559.4,156.4,547.8,166.2,414.8z"/>
		<path d="M681.5,64c-34.5,8.5-61,30.4-79.4,51.4c17.7,10.4,34,23,48.7,37.7c14.6,14.6,27.1,30.8,37.5,48.3
			c87.7,9.8,95.3,104.6,103.3,213.3c9.8,133,216.6,144.7,154.6-105.8C884.2,58.6,755.8,45.6,681.5,64z"/>
		<path d="M646.8,202.5c-17.5-23.9-40-44-66-58.7c-30.4-17.2-65.4-27-102.8-27c-36.8,0-71.4,9.5-101.4,26.2
			c-26.5,14.7-49.4,35-67.2,59.2C284,236.8,269,279.4,269,325.5v124.3c-53,47.7-84.7,113.4-84.7,186
			c0,140.6,122.5,255.5,276.7,263.6V630.2c-36.6-5.1-64-25.9-64-50.8c0-28.7,36.5-52,81.5-52s81.5,23.3,81.5,52
			c0,24.9-27.4,45.7-64,50.8v269.2c154.2-8.1,276.4-123,276.4-263.6c0-72.5-33.4-138.2-85.4-186V325.5
			C687,279.5,672.1,237,646.8,202.5z M297.1,768.5c-11.4,0-20.7-9.3-20.7-20.7c0-11.4,9.3-20.7,20.7-20.7c11.4,0,20.7,9.3,20.7,20.7
			C317.8,759.2,308.5,768.5,297.1,768.5z M300.5,694.5c-11.4,0-20.7-9.3-20.7-20.7c0-11.4,9.3-20.7,20.7-20.7s20.7,9.3,20.7,20.7
			C321.1,685.2,311.9,694.5,300.5,694.5z M323,397.4c0-16.6,13.4-30,30-30s30,13.4,30,30s-13.4,30-30,30S323,414,323,397.4z
			 M362.7,735.7c-11.4,0-20.7-9.3-20.7-20.7c0-11.4,9.3-20.7,20.7-20.7c11.4,0,20.7,9.3,20.7,20.7
			C383.3,726.4,374.1,735.7,362.7,735.7z M595.1,735.7c-11.4,0-20.7-9.3-20.7-20.7c0-11.4,9.3-20.7,20.7-20.7
			c11.4,0,20.7,9.3,20.7,20.7C615.8,726.4,606.5,735.7,595.1,735.7z M604,427.4c-16.6,0-30-13.4-30-30s13.4-30,30-30s30,13.4,30,30
			S620.6,427.4,604,427.4z M657.3,653.2c11.4,0,20.7,9.3,20.7,20.7s-9.3,20.7-20.7,20.7c-11.4,0-20.7-9.3-20.7-20.7
			C636.6,662.4,645.9,653.2,657.3,653.2z M660.7,768.5c-11.4,0-20.7-9.3-20.7-20.7c0-11.4,9.3-20.7,20.7-20.7
			c11.4,0,20.7,9.3,20.7,20.7C681.3,759.2,672.1,768.5,660.7,768.5z"/>
	</g>
</g>
</svg>
